# xmcd
# Track frame offsets:
# 150
# 6575
# 16806
# 26993
# 37294
# 45200
# 59379
# 65269
# 76277
# 81962
# 95398
#
# Disc length: 1436 seconds
# Revision: 0
# Processed by: cddbd v1.5.2PL0 Copyright (c) Steve Scherf et al.
# Submitted via: VisiTrax 2.10.1.251 - For more info visit www.synapsa.com
#
DISCID=86059a0b
DTITLE=Tammy Wynette - Singing My Song
DYEAR=2006
DGENRE=
TTITLE0=Welcome to my World
TTITLE1=Another Chance
TTITLE2=Womanhood
TTITLE3=I Still believe In Fairy Tales
TTITLE4=When The Grass Grows Over me
TTITLE5=Til I Can Make It on My Own
TTITLE6=Your Good Girl`s Gonna Go Bad
TTITLE7=D-I-V-O-R-C-E
TTITLE8=Singing my song
TTITLE9=Stand By your Man
TTITLE10=Crying in The Rain
EXTD=
EXTT0=
EXTT1=
EXTT2=
EXTT3=
EXTT4=
EXTT5=
EXTT6=
EXTT7=
EXTT8=
EXTT9=
EXTT10=
PLAYORDER=
